<svg role="img" viewBox="-390.8 -76.5 260.5 51" height="51" width="260.5" xmlns="http://www.w3.org/2000/svg"><title>InAccel Studio</title><path d="M-353.206-73.602c0 .6-.1 1.2-.4 1.7-.3.5-.8.9-1.3 1.2-.5.3-1.1.3-1.7.2-.6-.1-1.1-.4-1.6-.8-.4-.4-.8-.9-.9-1.5-.1-.6-.1-1.2.1-1.8.2-.6.6-1.1 1-1.4.5-.4 1.1-.6 1.6-.6.8 0 1.6.2 2.2.8.6.7 1 1.4 1 2.2z" fill="#767677"/><path d="M-370.744-37.97c-8 0-15-2.9-18.6-7.3 1.4 3.9 3.9 7.3 7.2 9.7s7.3 3.7 11.4 3.7c4.1 0 8.1-1.3 11.4-3.7 3.3-2.4 5.9-5.8 7.2-9.7-3.6 4.4-10.6 7.3-18.6 7.3zm.004-28.23c8 0 15 2.9 18.6 7.3-1.4-3.9-3.9-7.3-7.2-9.7-3.3-2.4-7.3-3.7-11.4-3.7-4.1 0-8.1 1.3-11.4 3.7-3.3 2.4-5.9 5.8-7.2 9.7 3.6-4.3 10.6-7.3 18.6-7.3z" fill="#F37726"/><path d="M-381.775-29.506c0 .8-.2 1.5-.5 2.2-.4.6-1 1.2-1.6 1.5-.7.3-1.4.4-2.2.3s-1.4-.5-2-1c-.5-.5-.9-1.2-1.1-1.9-.2-.7-.1-1.5.1-2.2.2-.7.7-1.3 1.3-1.8.6-.4 1.3-.7 2.1-.7 1 0 2 .3 2.7 1 .7.6 1.2 1.6 1.2 2.6z" fill="#989798"/><path d="M-388.527-67.206c-.4 0-.9-.1-1.2-.3s-.7-.6-.9-1-.2-.9-.2-1.3.3-.9.6-1.2.7-.6 1.1-.7.9-.1 1.3.1.8.4 1 .8.4.8.4 1.2c0 .6-.2 1.2-.6 1.6-.3.6-.9.8-1.5.8z" fill="#6F7070"/><path d="M-337.6-62.4c0 .4-.1.6-.4.9-.2.2-.5.4-.9.4-.3 0-.6-.1-.9-.4-.2-.2-.4-.5-.4-.9 0-.3.1-.6.4-.9.2-.2.5-.4.9-.4s.6.1.9.4c.3.3.4.5.4.9zm-2.2 5c0-.3.1-.5.3-.7.2-.2.4-.3.7-.3.3 0 .5.1.7.3.2.2.3.4.3.7v15c0 .3-.1.5-.3.7-.2.2-.4.3-.7.3-.3 0-.5-.1-.7-.3-.2-.2-.3-.4-.3-.7v-15zm5.9 0c0-.3.1-.5.3-.7.2-.2.4-.3.7-.3.3 0 .5.1.7.3.2.2.3.4.3.7v1.8c1.9-1.8 3.8-2.7 5.9-2.7 2.2 0 4 .8 5.5 2.3 1.5 1.5 2.3 3.4 2.3 5.5v8.1c0 .3-.1.5-.3.7-.2.2-.4.3-.7.3-.3 0-.5-.1-.7-.3s-.3-.4-.3-.7v-8.1c0-1.7-.6-3.1-1.8-4.2-1.2-1.2-2.6-1.8-4.2-1.8s-3 .6-4.2 1.8c-1.2 1.1-1.7 2.5-1.7 4.2v8.1c0 .3-.1.5-.3.7-.2.2-.4.3-.7.3-.3 0-.5-.1-.7-.3-.2-.2-.3-.4-.3-.7l.2-15z" fill="#989798"/><path d="M-302.2-57.3c1.3.8 2.3 1.8 3.1 3.1.8 1.3 1.1 2.8 1.1 4.4v6.9c0 .5-.1.8-.4 1.1-.3.3-.7.4-1.1.4-.5 0-.8-.1-1.1-.4-.3-.3-.4-.7-.4-1.1V-44c-.7.9-1.6 1.6-2.6 2.1s-2.1.7-3.3.7c-1.5 0-2.8-.4-4-1.1-1.2-.7-2.2-1.8-2.8-3.1-.7-1.3-1-2.8-1-4.4 0-1.6.4-3.1 1.1-4.4.7-1.3 1.8-2.3 3.1-3.1 1.3-.8 2.8-1.1 4.3-1.1 1.3-.1 2.7.3 4 1.1zm-1.5 12.4c.8-.5 1.5-1.2 2-2.1.5-.9.7-1.9.7-3s-.2-2.1-.7-3c-.5-.9-1.1-1.6-2-2.1-.8-.5-1.8-.8-2.8-.8-1 0-2 .3-2.8.8-.8.5-1.5 1.2-2 2.1-.5.9-.7 1.9-.7 3s.2 2.1.7 3c.5.9 1.1 1.6 2 2.1.8.5 1.8.8 2.8.8 1 0 1.9-.2 2.8-.8zm13.6 2.5c-1.3-.7-2.3-1.8-3-3.1-.7-1.3-1.1-2.8-1.1-4.4 0-1.6.4-3.1 1.1-4.4.7-1.3 1.7-2.3 3-3.1 1.3-.7 2.7-1.1 4.3-1.1 2.4 0 4.5.9 6.1 2.8.2.2.3.5.3.8 0 .5-.2.8-.7 1.1-.2.1-.4.2-.7.2-.5 0-.9-.2-1.2-.6-.5-.6-1.1-1-1.7-1.2-.6-.3-1.3-.4-2.1-.4-1.6 0-2.9.5-3.9 1.6s-1.5 2.5-1.5 4.2c0 1.1.2 2.1.7 3 .5.9 1.1 1.6 1.9 2.1.8.5 1.8.7 2.9.7 1.4 0 2.5-.4 3.4-1.1.4-.3.8-.4 1.1-.4.3 0 .6.1.8.3.4.3.6.7.6 1.1 0 .3-.1.6-.4.8-1.5 1.4-3.3 2.1-5.6 2.1-1.5.1-3-.3-4.3-1zm18.6 0c-1.3-.7-2.3-1.8-3-3.1-.7-1.3-1.1-2.8-1.1-4.4 0-1.6.4-3.1 1.1-4.4.7-1.3 1.7-2.3 3-3.1 1.3-.7 2.7-1.1 4.3-1.1 2.4 0 4.4.9 6.1 2.8.2.2.3.5.3.8 0 .5-.2.8-.7 1.1-.2.1-.4.2-.7.2-.5 0-.9-.2-1.2-.6-.5-.6-1.1-1-1.7-1.2-.6-.3-1.3-.4-2.1-.4-1.6 0-2.9.5-3.9 1.6s-1.5 2.5-1.5 4.2c0 1.1.2 2.1.7 3 .5.9 1.1 1.6 1.9 2.1.8.5 1.8.7 2.9.7 1.4 0 2.5-.4 3.4-1.1.4-.3.8-.4 1.1-.4.3 0 .6.1.8.3.4.3.6.7.6 1.1 0 .3-.1.6-.4.8-1.5 1.4-3.3 2.1-5.6 2.1-1.5.1-3-.3-4.3-1zm30.1-6.8c-.3.3-.6.4-1 .4h-11.7c.2 1.4.9 2.6 2 3.5 1.1.9 2.4 1.3 4 1.3.6 0 1.3-.1 1.9-.3.7-.2 1.2-.5 1.7-.8.3-.2.6-.3 1-.3s.7.1.9.3c.4.3.6.7.6 1.1 0 .4-.2.7-.5.9-.7.6-1.6 1-2.6 1.4-1 .4-2 .5-3 .5-1.7 0-3.2-.4-4.5-1.1-1.3-.7-2.4-1.7-3.1-3-.8-1.3-1.1-2.8-1.1-4.4 0-1.6.4-3.1 1.1-4.4.7-1.3 1.7-2.3 3-3.1 1.3-.7 2.7-1.1 4.3-1.1 1.6 0 3 .4 4.1 1.1 1.2.7 2 1.7 2.7 2.9.6 1.3.9 2.7.9 4.3-.3.2-.5.6-.7.8zm-11-5.4c-.9.8-1.5 1.9-1.8 3.3h10.3c-.2-1.4-.7-2.5-1.5-3.3-.8-.8-1.9-1.2-3.3-1.2-1.5 0-2.7.4-3.7 1.2zm17 12.4c-.7-.5-1.3-1.2-1.7-2-.4-.9-.6-1.9-.6-3V-64c0-.5.1-.8.4-1.1.3-.3.7-.4 1.1-.4.5 0 .8.1 1.1.4.3.3.4.7.4 1.1v16.9c0 .8.1 1.4.4 1.9.3.5.7.7 1.1.7h.8c.4 0 .7.1 1 .4.3.3.4.7.4 1.1 0 .5-.2.8-.6 1.1-.4.3-.9.4-1.5.4h-.1c-.7.1-1.5-.2-2.2-.7z" fill="#6F7070"/><path d="M-225.5-36.6c-1.2-.4-2.2-1-2.9-1.7-.3-.3-.4-.6-.4-1 0-.5.2-.9.6-1.2.4-.3.8-.4 1.1-.4.4 0 .8.2 1.2.6.4.4 1 .8 1.8 1.1.8.3 1.6.5 2.5.5 1.2 0 2.1-.2 2.7-.6.6-.4 1-.9 1-1.6 0-.6-.3-1.2-1-1.6-.6-.4-1.7-.8-3.2-1.1-4-.8-5.9-2.4-5.9-4.9 0-1 .3-1.9.9-2.6.6-.7 1.4-1.2 2.3-1.6 1-.4 2-.5 3.1-.5 1.3 0 2.5.2 3.6.6 1.1.4 1.9 1 2.5 1.8.3.3.4.7.4 1 0 .4-.2.7-.5 1-.2.2-.5.2-.9.2-.5 0-1-.2-1.5-.6-.5-.5-1.1-.8-1.6-1-.6-.2-1.3-.3-2.1-.3-.9 0-1.7.2-2.3.5-.6.3-.9.8-.9 1.3 0 .4.1.8.3 1 .2.3.6.5 1.2.8.6.2 1.4.5 2.5.7 2.2.5 3.8 1.1 4.8 1.9.9.8 1.4 1.8 1.4 3.1 0 .9-.3 1.8-.8 2.6s-1.3 1.4-2.3 1.8c-1 .4-2.2.7-3.6.7-1.5.2-2.8 0-4-.5zm22.7-2.1c.3.3.4.7.4 1.1 0 .5-.2.8-.5 1.1-.3.3-.8.4-1.3.4h-.6c-1 0-1.9-.3-2.8-.8-.8-.5-1.5-1.2-2-2.1-.5-.9-.7-1.9-.7-3.1v-7.6h-1.4c-.4 0-.8-.1-1.1-.4-.3-.2-.4-.6-.4-.9 0-.4.1-.7.4-1 .3-.2.6-.4 1.1-.4h1.4v-4.4c0-.5.1-.8.4-1.1.3-.3.7-.4 1.1-.4.5 0 .8.1 1.1.4.3.3.4.7.4 1.1v4.4h2.6c.4 0 .8.1 1.1.4.3.2.4.6.4 1s-.1.7-.4.9c-.3.2-.6.4-1.1.4h-2.6v7.6c0 .8.2 1.5.7 2.1.5.6 1 .8 1.7.8h1.1c.4.1.7.2 1 .5zm19.3-13.9c.3.3.4.7.4 1.1v13.8c0 .5-.1.8-.4 1.1-.3.3-.7.4-1.1.4-.5 0-.8-.1-1.1-.4-.3-.3-.4-.7-.4-1.1v-.3c-.7.7-1.4 1.2-2.3 1.5-.9.4-1.9.5-2.9.5-1.4 0-2.7-.3-3.8-.9-1.1-.6-2-1.5-2.7-2.7-.6-1.2-1-2.6-1-4.3v-7.6c0-.5.1-.8.4-1.1.3-.3.7-.4 1.1-.4.5 0 .8.1 1.1.4.3.3.4.7.4 1.1v7.6c0 1.7.4 2.9 1.3 3.8.9.9 2.1 1.3 3.6 1.3.9 0 1.7-.2 2.4-.5.7-.4 1.3-.8 1.7-1.4.4-.6.6-1.3.6-2v-8.7c0-.5.1-.9.4-1.1.3-.3.7-.4 1.1-.4.5-.1.9.1 1.2.3zm21.7-7.2c.3.3.4.7.4 1.1v14.1c0 1.6-.4 3.1-1.1 4.4-.8 1.3-1.8 2.3-3.1 3.1-1.3.8-2.7 1.1-4.3 1.1-1.6 0-3-.4-4.3-1.1-1.3-.8-2.3-1.8-3.1-3.1-.7-1.3-1.1-2.8-1.1-4.4 0-1.6.3-3.1 1-4.4.7-1.3 1.6-2.3 2.8-3.1 1.2-.7 2.5-1.1 4-1.1 1.2 0 2.3.2 3.3.7 1 .5 1.9 1.2 2.6 2.1v-8.3c0-.5.1-.9.4-1.1.3-.3.7-.4 1.1-.4.8 0 1.2.2 1.4.4zm-5.2 20.3c.8-.5 1.5-1.2 2-2.1.5-.9.7-1.9.7-3s-.2-2.1-.7-3c-.5-.9-1.1-1.6-2-2.1-.8-.5-1.8-.8-2.8-.8-1 0-2 .3-2.8.8-.8.5-1.5 1.2-2 2.1-.5.9-.7 1.9-.7 3s.2 2.1.7 3c.5.9 1.1 1.6 2 2.1.8.5 1.8.8 2.8.8 1 0 1.9-.3 2.8-.8zm11.7-16.8c-.4-.4-.6-.9-.6-1.4 0-.6.2-1 .6-1.4.4-.4.9-.6 1.4-.6s1 .2 1.4.6c.4.4.6.9.6 1.4s-.2 1-.6 1.4c-.4.4-.9.6-1.4.6s-1-.2-1.4-.6zm.3 19.8c-.3-.3-.4-.7-.4-1.1v-13.8c0-.5.1-.9.4-1.1.3-.3.7-.4 1.1-.4.5 0 .9.1 1.1.4.3.3.4.7.4 1.1v13.8c0 .5-.1.8-.4 1.1-.3.3-.7.4-1.1.4-.4 0-.8-.1-1.1-.4zm11.8-.5c-1.3-.7-2.3-1.7-3-3-.7-1.3-1.1-2.8-1.1-4.4 0-1.7.4-3.2 1.1-4.4.7-1.3 1.7-2.3 3-3 1.3-.7 2.8-1.1 4.4-1.1 1.6 0 3.1.4 4.4 1.1 1.3.7 2.3 1.7 3 3 .7 1.3 1.1 2.8 1.1 4.4 0 1.6-.4 3.1-1.1 4.4-.7 1.3-1.7 2.3-3 3-1.3.7-2.8 1.1-4.4 1.1-1.6 0-3.1-.4-4.4-1.1zm7.3-2.5c.8-.5 1.5-1.2 1.9-2.1.5-.9.7-1.9.7-3s-.2-2.1-.7-3c-.5-.9-1.1-1.6-1.9-2.1-.8-.5-1.8-.7-2.8-.7-1.1 0-2 .2-2.8.7-.8.5-1.5 1.2-2 2.1-.5.9-.7 1.9-.7 3s.2 2.1.7 3c.5.9 1.1 1.6 2 2.1.8.5 1.8.7 2.8.7 1 .1 1.9-.2 2.8-.7z" fill="#F37726"/></svg>
