<svg xmlns="http://www.w3.org/2000/svg" viewBox="0.1 336.3 612 119.8" xml:space="preserve"><title>InAccel Studio</title><path fill="#767677" d="M88.394 343.098c.1 1.4-.3 2.8-1 4-.7 1.2-1.8 2.2-3.1 2.8-1.3.6-2.7.8-4.1.6s-2.7-.8-3.7-1.8c-1-.9-1.8-2.1-2.1-3.5-.3-1.4-.3-2.8.2-4.1.5-1.3 1.3-2.5 2.5-3.3 1.1-.8 2.5-1.3 3.9-1.4 1.9-.1 3.7.6 5.1 1.9 1.4 1.2 2.3 3 2.3 4.8z"/><path fill="#F37726" d="M47.256 426.93c-18.8 0-35.3-6.9-43.8-17.1 3.2 9.2 9.1 17.1 16.9 22.7 7.8 5.6 17.2 8.6 26.9 8.6s19-3 26.9-8.6c7.8-5.6 13.8-13.5 16.9-22.7-8.6 10.2-25 17.1-43.8 17.1zM47.16 360.6c18.8 0 35.3 6.9 43.8 17.1-3.2-9.2-9.1-17.1-16.9-22.7-7.9-5.6-17.2-8.6-26.9-8.6s-19 3-26.9 8.6c-7.8 5.6-13.8 13.6-16.9 22.7 8.6-10.2 25-17.1 43.8-17.1z"/><path fill="#989798" d="M21.325 446.694c.1 1.8-.4 3.6-1.3 5.1s-2.2 2.7-3.8 3.5c-1.6.8-3.4 1-5.1.7-1.7-.3-3.4-1.1-4.7-2.3-1.3-1.2-2.2-2.8-2.6-4.5-.4-1.7-.3-3.5.3-5.2.6-1.7 1.7-3.1 3.1-4.2 1.4-1 3.1-1.6 4.9-1.7 2.4-.1 4.7.8 6.4 2.4 1.7 1.6 2.7 3.9 2.8 6.2z"/><path fill="#6F7070" d="M5.573 358.194c-1 .1-2-.2-2.9-.8-.9-.5-1.6-1.3-2-2.3s-.6-2-.4-3 .6-2 1.3-2.8c.7-.8 1.6-1.3 2.6-1.5s2-.2 3 .2 1.8 1 2.4 1.8c.6.8 1 1.8 1 2.9.1 1.4-.4 2.8-1.4 3.8a4.6 4.6 0 0 1-3.6 1.7z"/><g fill="#989798"><path d="M125.2 369.4c0 .8-.3 1.5-.9 2.1-.6.6-1.3.9-2.1.9s-1.5-.3-2.1-.9c-.6-.6-.9-1.3-.9-2.1s.3-1.5.9-2.1c.6-.6 1.3-.9 2.1-.9s1.5.3 2.1.9c.6.6.9 1.3.9 2.1zm-5.2 11.8c0-.6.2-1.1.6-1.6.4-.4.9-.6 1.6-.6.6 0 1.1.2 1.6.6.4.4.7.9.7 1.6v35.3c0 .6-.2 1.1-.7 1.6-.4.4-1 .6-1.6.6s-1.1-.2-1.6-.6c-.4-.4-.6-.9-.6-1.6v-35.3zM133.9 381.2c0-.6.2-1.1.6-1.6.4-.4.9-.6 1.6-.6.6 0 1.1.2 1.6.6.4.4.6.9.6 1.6v4.1c4.4-4.2 9-6.3 14-6.3 5.1 0 9.4 1.8 13 5.4 3.6 3.6 5.4 7.9 5.4 13v19.1c0 .6-.2 1.1-.7 1.6-.4.4-1 .6-1.6.6s-1.1-.2-1.6-.6c-.4-.4-.6-.9-.6-1.6v-19.1c0-3.9-1.4-7.2-4.1-9.9-2.7-2.8-6-4.1-9.9-4.1-3.8 0-7.1 1.4-9.9 4.1-2.7 2.7-4.1 6-4.1 9.9v19.1c0 .6-.2 1.1-.6 1.6s-.9.6-1.6.6c-.6 0-1.1-.2-1.6-.6s-.6-.9-.6-1.6l.1-35.3z"/></g><g fill="#6F7070"><path d="M208.2 381.3c3 1.8 5.4 4.2 7.2 7.3 1.8 3.1 2.7 6.5 2.7 10.3v16.2c0 1.1-.4 1.9-1.1 2.7-.7.7-1.6 1.1-2.7 1.1s-1.9-.4-2.7-1.1c-.7-.7-1.1-1.6-1.1-2.7v-2.7c-1.7 2.1-3.7 3.7-6.2 4.9s-5 1.7-7.8 1.7c-3.5 0-6.7-.9-9.5-2.6s-5.1-4.1-6.7-7.2c-1.6-3.1-2.4-6.5-2.4-10.3 0-3.8.9-7.2 2.6-10.3 1.7-3.1 4.1-5.5 7.2-7.3 3.1-1.8 6.5-2.7 10.2-2.7 3.9.1 7.3 1 10.3 2.7zm-3.6 29.4c1.9-1.2 3.5-2.8 4.6-4.9 1.1-2 1.7-4.4 1.7-6.9s-.6-4.9-1.7-7c-1.1-2.1-2.7-3.7-4.6-4.9-1.9-1.2-4.1-1.8-6.6-1.8s-4.6.6-6.6 1.8c-1.9 1.2-3.5 2.8-4.7 4.9-1.1 2.1-1.7 4.4-1.7 7 0 2.6.6 4.9 1.7 6.9s2.7 3.7 4.7 4.9c1.9 1.2 4.1 1.8 6.6 1.8 2.5-.1 4.7-.7 6.6-1.8zM236.8 416.3c-3.1-1.7-5.4-4.1-7.2-7.2-1.7-3.1-2.6-6.5-2.6-10.3 0-3.9.8-7.3 2.5-10.4 1.7-3.1 4-5.5 7-7.2s6.4-2.6 10.2-2.6c5.7 0 10.4 2.2 14.2 6.5.5.5.7 1.2.7 1.9 0 1.1-.5 1.9-1.6 2.7-.5.3-1 .5-1.7.5-1.1 0-2-.4-2.8-1.3-1.2-1.3-2.5-2.3-3.9-2.9-1.4-.6-3.1-.9-4.9-.9-3.7 0-6.8 1.2-9.1 3.7s-3.5 5.8-3.5 9.9c0 2.6.6 5 1.6 7 1.1 2 2.6 3.7 4.6 4.8 1.9 1.2 4.2 1.7 6.7 1.7 3.3 0 5.9-.8 8-2.5.9-.7 1.8-1 2.7-1 .7 0 1.3.2 1.9.7.9.8 1.4 1.6 1.4 2.6 0 .7-.3 1.4-.9 1.9-3.5 3.2-7.8 4.9-13.1 4.9-3.8.2-7.2-.7-10.2-2.5zM280.4 416.3c-3.1-1.7-5.4-4.1-7.2-7.2-1.7-3.1-2.6-6.5-2.6-10.3 0-3.9.8-7.3 2.5-10.4 1.7-3.1 4-5.5 7-7.2 3-1.7 6.4-2.6 10.2-2.6 5.7 0 10.4 2.2 14.2 6.5.5.5.7 1.2.7 1.9 0 1.1-.5 1.9-1.6 2.7-.5.3-1 .5-1.7.5-1.1 0-2-.4-2.8-1.3-1.2-1.3-2.5-2.3-3.9-2.9-1.4-.6-3.1-.9-4.9-.9-3.7 0-6.8 1.2-9.1 3.7s-3.5 5.8-3.5 9.9c0 2.6.6 5 1.6 7 1.1 2 2.6 3.7 4.6 4.8 1.9 1.2 4.2 1.7 6.7 1.7 3.3 0 5.9-.8 8-2.5.9-.7 1.8-1 2.7-1 .7 0 1.3.2 1.9.7.9.8 1.4 1.6 1.4 2.6 0 .7-.3 1.4-.9 1.9-3.5 3.2-7.8 4.9-13.1 4.9-3.7.2-7.2-.7-10.2-2.5zM351 400.5c-.6.6-1.4.9-2.4.9H321c.5 3.4 2.1 6.1 4.6 8.2s5.6 3.1 9.3 3.1c1.4 0 3-.3 4.5-.8 1.6-.5 2.9-1.2 3.9-1.9.7-.5 1.5-.8 2.4-.8.9 0 1.6.3 2.2.7.9.7 1.3 1.5 1.3 2.5 0 .9-.4 1.6-1.2 2.2-1.6 1.3-3.7 2.4-6.1 3.2-2.5.8-4.8 1.2-7 1.2-4 0-7.5-.9-10.7-2.6-3.1-1.7-5.6-4.1-7.4-7.2-1.8-3.1-2.7-6.5-2.7-10.4 0-3.9.8-7.3 2.5-10.4 1.7-3.1 4-5.5 7-7.2s6.3-2.6 10.1-2.6c3.7 0 7 .8 9.7 2.5s4.8 3.9 6.2 6.9c1.4 3 2.2 6.3 2.2 10.2.2.9-.2 1.7-.8 2.3zm-25.7-12.7c-2.2 1.9-3.6 4.5-4.2 7.8h24.2c-.4-3.2-1.6-5.8-3.6-7.8-2-1.9-4.6-2.9-7.8-2.9-3.6 0-6.4 1-8.6 2.9zM365.2 417c-1.7-1.1-3-2.7-3.9-4.8-.9-2-1.4-4.4-1.4-6.9v-39.7c0-1.1.3-1.9 1-2.6.7-.7 1.5-1 2.6-1s1.9.3 2.6 1c.7.7 1 1.5 1 2.6v39.6c0 1.8.3 3.3 1 4.4.7 1.2 1.5 1.7 2.6 1.7h1.8c1 0 1.7.3 2.4 1 .6.7.9 1.5.9 2.6s-.5 1.9-1.4 2.6c-.9.7-2.1 1-3.6 1h-.2c-1.8.2-3.7-.4-5.4-1.5z"/></g><g fill="#F37726"><path d="M388.3 417.4c-2.9-1-5.2-2.4-6.8-4-.6-.6-.9-1.4-.9-2.3 0-1.2.5-2.1 1.4-2.8.9-.7 1.8-1 2.5-1 1 0 1.9.4 2.8 1.3.9 1 2.3 1.9 4.1 2.7 1.8.8 3.8 1.1 5.9 1.1 2.8 0 4.9-.5 6.4-1.4 1.5-.9 2.3-2.1 2.3-3.7 0-1.5-.8-2.8-2.3-3.7-1.5-1-4-1.8-7.6-2.5-9.3-1.8-13.9-5.6-13.9-11.5 0-2.4.7-4.4 2.1-6s3.2-2.9 5.5-3.7c2.3-.8 4.7-1.2 7.3-1.2 3.1 0 6 .5 8.4 1.5 2.5 1 4.5 2.4 5.9 4.2.6.8.9 1.5.9 2.3 0 .8-.4 1.6-1.2 2.3-.5.4-1.2.6-2 .6-1.3 0-2.4-.5-3.4-1.4-1.2-1.1-2.5-1.9-3.8-2.4-1.4-.5-3-.7-4.9-.7-2.2 0-4 .4-5.5 1.1-1.4.8-2.1 1.8-2.1 3.2 0 1 .3 1.8.7 2.4s1.4 1.3 2.8 1.8c1.4.6 3.3 1.1 5.9 1.6 5.3 1.1 9 2.5 11.2 4.4 2.2 1.9 3.3 4.3 3.3 7.3 0 2.2-.6 4.2-1.8 6.1-1.2 1.8-3 3.2-5.3 4.3-2.4 1-5.2 1.6-8.4 1.6-3.5 0-6.6-.5-9.5-1.5zM441.7 412.4c.6.7.9 1.5.9 2.6s-.4 1.9-1.2 2.6c-.8.7-1.8 1-3.1 1H437c-2.4 0-4.5-.6-6.5-1.8-2-1.2-3.5-2.9-4.6-5-1.1-2.1-1.7-4.5-1.7-7.2v-17.9h-3.3c-1 0-1.8-.3-2.5-.9-.6-.6-.9-1.3-.9-2.2 0-1 .3-1.7.9-2.3.6-.6 1.4-.9 2.5-.9h3.3V370c0-1.1.3-1.9 1-2.6.7-.7 1.5-1 2.6-1s1.9.3 2.6 1c.7.7 1 1.5 1 2.6v10.4h6.2c1 0 1.8.3 2.5.9.6.6.9 1.4.9 2.3 0 .9-.3 1.6-.9 2.2-.6.6-1.4.9-2.5.9h-6.2v17.9c0 1.9.5 3.6 1.6 4.9 1.1 1.3 2.4 1.9 3.9 1.9h2.5c1-.1 1.7.3 2.3 1zM487.1 379.9c.7.7 1 1.6 1 2.7V415c0 1.1-.3 1.9-1 2.7-.7.7-1.6 1.1-2.7 1.1s-1.9-.4-2.7-1.1-1.1-1.6-1.1-2.7v-.8c-1.5 1.5-3.4 2.8-5.5 3.6-2.1.9-4.4 1.3-6.8 1.3-3.3 0-6.3-.7-9-2.2-2.7-1.4-4.8-3.6-6.2-6.3s-2.3-6.1-2.3-10.1v-17.9c0-1.1.4-1.9 1.1-2.7.7-.7 1.6-1.1 2.7-1.1s1.9.4 2.7 1.1 1.1 1.6 1.1 2.7v17.9c0 3.9 1.1 6.9 3.2 8.9s4.9 3 8.4 3c2 0 3.9-.4 5.6-1.2 1.7-.8 3-1.9 3.9-3.3.9-1.4 1.4-3 1.4-4.7v-20.5c0-1.1.4-2 1.1-2.7.7-.7 1.6-1 2.7-1 .8-.2 1.7.2 2.4.9zM538.1 362.9c.7.7 1 1.6 1 2.7v33.1c0 3.8-.9 7.2-2.7 10.3-1.8 3.1-4.2 5.5-7.2 7.3-3 1.8-6.4 2.7-10.1 2.7-3.7 0-7.1-.9-10.2-2.7-3.1-1.8-5.5-4.2-7.2-7.3-1.7-3.1-2.6-6.5-2.6-10.3 0-3.8.8-7.2 2.4-10.3 1.6-3.1 3.8-5.5 6.7-7.2 2.8-1.7 6-2.6 9.5-2.6 2.8 0 5.4.6 7.8 1.7 2.4 1.2 4.5 2.8 6.2 4.9v-19.6c0-1.1.4-2 1.1-2.7.7-.7 1.6-1 2.7-1s2 .3 2.6 1zm-12.3 47.7c1.9-1.2 3.5-2.8 4.6-4.9 1.1-2.1 1.7-4.4 1.7-7 0-2.6-.6-4.9-1.7-6.9s-2.7-3.7-4.6-4.9c-1.9-1.2-4.1-1.8-6.6-1.8-2.4 0-4.6.6-6.6 1.8-1.9 1.2-3.5 2.8-4.7 4.9-1.1 2-1.7 4.4-1.7 6.9s.6 4.9 1.7 7c1.1 2.1 2.7 3.7 4.7 4.9 1.9 1.2 4.1 1.8 6.6 1.8 2.4 0 4.6-.6 6.6-1.8zM553.3 371c-.9-.9-1.4-2.1-1.4-3.4s.5-2.4 1.4-3.4 2.1-1.4 3.4-1.4c1.3 0 2.4.5 3.4 1.4.9.9 1.4 2.1 1.4 3.4s-.5 2.4-1.4 3.4c-.9.9-2.1 1.4-3.4 1.4-1.4 0-2.5-.4-3.4-1.4zm.7 46.6c-.7-.7-1.1-1.6-1.1-2.7v-32.3c0-1.1.4-2 1.1-2.7.7-.7 1.6-1 2.7-1s2 .3 2.7 1c.7.7 1 1.6 1 2.7v32.3c0 1.1-.3 1.9-1 2.7s-1.6 1.1-2.7 1.1c-1.1-.1-2-.5-2.7-1.1zM581.8 416.3c-3.1-1.7-5.4-4.1-7.1-7.2-1.7-3.1-2.5-6.5-2.5-10.4 0-3.9.8-7.4 2.5-10.4 1.7-3.1 4.1-5.4 7.1-7.2 3.1-1.7 6.5-2.6 10.4-2.6 3.8 0 7.2.9 10.3 2.6 3 1.7 5.4 4.1 7.1 7.2 1.7 3.1 2.6 6.5 2.6 10.4 0 3.9-.9 7.3-2.5 10.4-1.7 3.1-4 5.4-7.1 7.2s-6.5 2.6-10.3 2.6c-4 0-7.5-.9-10.5-2.6zm17-5.7c1.9-1.2 3.5-2.8 4.6-4.8 1.1-2 1.6-4.4 1.6-7 0-2.6-.6-5-1.6-7s-2.6-3.7-4.6-4.9c-2-1.2-4.2-1.7-6.7-1.7s-4.7.6-6.7 1.7c-2 1.2-3.5 2.8-4.6 4.9-1.1 2.1-1.7 4.4-1.7 7 0 2.6.6 5 1.7 7s2.7 3.7 4.6 4.8c1.9 1.2 4.2 1.7 6.7 1.7 2.5.1 4.7-.5 6.7-1.7z"/></g></svg>
